<svg xmlns="http://www.w3.org/2000/svg" xmlns:xlink="http://www.w3.org/1999/xlink" xmlns:v="http://vecta.io" width="713" height="532" viewBox="0 0 713 532" ><style><![CDATA[svg{stroke:#000;stroke-linecap:round;stroke-linejoin:round;fill:#fff;fill-rule:evenodd;font-family:Roboto;font-size:14px;text-anchor:middle}svg text{stroke:none}]]></style><defs><style>@import url("https://fonts.googleapis.com/css?family=Roboto:400,400i,700,700i");</style><g id="thin.end"><path d="M 0 0 L 3 10 L -3 10 Z" stroke="none"/></g></defs><g transform="translate(0.5 20.5)"><rect fill="#ccffff" height="50" width="290" x="0" y="0"/><g><text fill="#000000" fill-opacity="1" font-size="36px"><tspan x="145" y="36.88">Probe script</tspan></text></g></g><g transform="translate(410.5 0.5)"><rect fill="#ccffff" height="90" width="300" x="0" y="0"/><g><text fill="#000000" fill-opacity="1" font-size="36px"><tspan x="150" y="35.28">Kernel DWARF </tspan><tspan x="150" y="78.48">data</tspan></text></g></g><g transform="translate(200.5 150.5)"><rect fill="#ccffff" height="90" width="300" x="0" y="0"/><g><text fill="#000000" fill-opacity="1" font-size="36px"><tspan x="150" y="35.28">Front-end </tspan><tspan x="150" y="78.48">compiler</tspan></text></g></g><g transform="translate(200.5 290.5)"><rect fill="#ccffff" height="50" width="300" x="0" y="0"/><g><text fill="#000000" fill-opacity="1" font-size="36px"><tspan x="150" y="36.88">TapirAsm</tspan></text></g></g><g transform="translate(200.5 390.5)"><rect fill="#ccffff" height="50" width="300" x="0" y="0"/><g><text fill="#000000" fill-opacity="1" font-size="36px"><tspan x="150" y="36.88">C</tspan></text></g></g><g transform="translate(179.6667 70.5)"><path d="M 1e-13 1e-13 L 101.6666 74.3902" fill="none"/><use class="EndArrow.cls" fill="#000000" xlink:href="#thin.end" transform="scale(1) rotate(126.1932 109.3334 80)" x="109.3334" y="80"/></g><g transform="translate(413.5 90.5)"><path d="M 84 0 L 7.7305 54.4782" fill="none"/><use class="EndArrow.cls" fill="#000000" xlink:href="#thin.end" transform="scale(1) rotate(234.4623 0 60)" x="0" y="60"/></g><g transform="translate(350.5 240.5)"><path d="M 1e-13 1e-13 L 0 40.5" fill="none"/><use class="EndArrow.cls" fill="#000000" xlink:href="#thin.end" transform="scale(1) rotate(180 0 50)" x="0" y="50"/></g><g transform="translate(350.5 340.5)"><path d="M 1e-13 1e-13 L 0 40.5" fill="none"/><use class="EndArrow.cls" fill="#000000" xlink:href="#thin.end" transform="scale(1) rotate(180 0 50)" x="0" y="50"/></g><g transform="translate(200.5 480.5)"><rect fill="#ccffff" height="50" width="300" x="0" y="0"/><g><text fill="#000000" fill-opacity="1" font-size="36px"><tspan x="150" y="36.88">Kernel module</tspan></text></g></g><g transform="translate(350.5 440.5)"><path fill="none" d="M 1e-13 1e-13 L 0 30.5"/><use class="EndArrow.cls" fill="#000000" x="0" y="40" xlink:href="#thin.end" transform="scale(1) rotate(180 0 40)" /></g></svg>